<?xml version="1.0" encoding="UTF-8" standalone="no"?>
<!-- Source: https://www.unicode.org/L2/L2018/18303-external-link.pdf -->
<svg
   viewBox="0 0 48 48"
   version="1.1"
   id="svg6"
   width="48"
   height="48"
   xmlns="http://www.w3.org/2000/svg"
   xmlns:svg="http://www.w3.org/2000/svg">
  <defs
     id="defs10" />
  <path
     stroke="currentColor"
     d="m 36,24 c -1.2,0 -2,0.8 -2,2 v 12 c 0,1.2 -0.8,2 -2,2 H 10 C 8.8,40 8,39.2 8,38 V 16 c 0,-1.2 0.8,-2 2,-2 h 12 c 1.2,0 2,-0.8 2,-2 0,-1.2 -0.8,-2 -2,-2 H 10 c -3.4,0 -6,2.6 -6,6 v 22 c 0,3.4 2.6,6 6,6 h 22 c 3.4,0 6,-2.6 6,-6 V 26 c 0,-1.2 -0.8,-2 -2,-2 z"
     id="path2" />
  <path
     stroke="currentColor"
     d="M 43.8,5.2 C 43.6,4.8 43.2,4.4 42.8,4.2 42.6,4 42.2,4 42,4 H 30 c -1.2,0 -2,0.8 -2,2 0,1.2 0.8,2 2,2 h 7.2 L 18.6,26.6 c -0.8,0.8 -0.8,2 0,2.8 0.4,0.4 0.8,0.6 1.4,0.6 0.6,0 1,-0.2 1.4,-0.6 L 40,10.8 V 18 c 0,1.2 0.8,2 2,2 1.2,0 2,-0.8 2,-2 V 6 C 44,5.8 44,5.4 43.8,5.2 Z"
     id="path4" />
</svg>
